<mxfile host="Electron" agent="Mozilla/5.0 (X11; Linux x86_64) AppleWebKit/537.36 (KHTML, like Gecko) draw.io/28.0.6 Chrome/138.0.7204.100 Electron/37.2.3 Safari/537.36" version="28.0.6">
  <diagram name="Page-1" id="0T-4phRKAJT4-IHzqV7b">
    <mxGraphModel dx="1188" dy="664" grid="1" gridSize="10" guides="1" tooltips="1" connect="1" arrows="1" fold="1" page="1" pageScale="1" pageWidth="850" pageHeight="1100" math="0" shadow="0">
      <root>
        <mxCell id="0" />
        <mxCell id="1" parent="0" />
        <mxCell id="KuING2nJ-84F3JOzizR9-13" value="" style="rounded=1;whiteSpace=wrap;html=1;fillColor=none;dashed=1;dashPattern=8 8;" parent="1" vertex="1">
          <mxGeometry x="180" y="300" width="520" height="240" as="geometry" />
        </mxCell>
        <mxCell id="Ht0l2AZ8sPLP8vT-4crQ-9" value="" style="rounded=1;whiteSpace=wrap;html=1;fillColor=none;dashed=1;dashPattern=8 8;" parent="1" vertex="1">
          <mxGeometry x="220" y="131" width="120" height="160" as="geometry" />
        </mxCell>
        <mxCell id="Ht0l2AZ8sPLP8vT-4crQ-10" value="" style="rounded=1;whiteSpace=wrap;html=1;fillColor=none;dashed=1;dashPattern=8 8;" parent="1" vertex="1">
          <mxGeometry x="540" y="131" width="120" height="160" as="geometry" />
        </mxCell>
        <mxCell id="Ht0l2AZ8sPLP8vT-4crQ-8" style="edgeStyle=orthogonalEdgeStyle;rounded=0;orthogonalLoop=1;jettySize=auto;html=1;exitX=0;exitY=0.25;exitDx=0;exitDy=0;entryX=0.25;entryY=0;entryDx=0;entryDy=0;startArrow=classic;startFill=1;endArrow=none;endFill=0;" parent="1" source="Ht0l2AZ8sPLP8vT-4crQ-1" target="Ht0l2AZ8sPLP8vT-4crQ-2" edge="1">
          <mxGeometry relative="1" as="geometry" />
        </mxCell>
        <mxCell id="Ht0l2AZ8sPLP8vT-4crQ-1" value="Executable Common Platform" style="rounded=0;whiteSpace=wrap;html=1;" parent="1" vertex="1">
          <mxGeometry x="360" y="151" width="160" height="60" as="geometry" />
        </mxCell>
        <mxCell id="Ht0l2AZ8sPLP8vT-4crQ-6" style="edgeStyle=orthogonalEdgeStyle;rounded=0;orthogonalLoop=1;jettySize=auto;html=1;exitX=0.75;exitY=0;exitDx=0;exitDy=0;entryX=0;entryY=0.75;entryDx=0;entryDy=0;endArrow=none;endFill=0;startArrow=classic;startFill=1;" parent="1" source="Ht0l2AZ8sPLP8vT-4crQ-2" target="Ht0l2AZ8sPLP8vT-4crQ-1" edge="1">
          <mxGeometry relative="1" as="geometry" />
        </mxCell>
        <mxCell id="Ht0l2AZ8sPLP8vT-4crQ-2" value="Mock Modbus Interface&lt;div&gt;(Python)&lt;/div&gt;" style="rounded=0;whiteSpace=wrap;html=1;" parent="1" vertex="1">
          <mxGeometry x="200" y="320" width="160" height="60" as="geometry" />
        </mxCell>
        <mxCell id="Ht0l2AZ8sPLP8vT-4crQ-4" style="edgeStyle=orthogonalEdgeStyle;rounded=0;orthogonalLoop=1;jettySize=auto;html=1;exitX=0.25;exitY=0;exitDx=0;exitDy=0;entryX=1;entryY=0.75;entryDx=0;entryDy=0;" parent="1" source="Ht0l2AZ8sPLP8vT-4crQ-3" target="Ht0l2AZ8sPLP8vT-4crQ-1" edge="1">
          <mxGeometry relative="1" as="geometry" />
        </mxCell>
        <mxCell id="Ht0l2AZ8sPLP8vT-4crQ-13" value="&lt;font style=&quot;font-size: 10px;&quot;&gt;Measured&amp;nbsp;&lt;/font&gt;&lt;div&gt;&lt;font style=&quot;font-size: 10px;&quot;&gt;flow rate&lt;/font&gt;&lt;/div&gt;" style="edgeLabel;html=1;align=center;verticalAlign=middle;resizable=0;points=[];" parent="Ht0l2AZ8sPLP8vT-4crQ-4" vertex="1" connectable="0">
          <mxGeometry x="-0.1364" relative="1" as="geometry">
            <mxPoint y="1" as="offset" />
          </mxGeometry>
        </mxCell>
        <mxCell id="HGNOtrMJjoajRsX06KiG-5" style="edgeStyle=orthogonalEdgeStyle;rounded=0;orthogonalLoop=1;jettySize=auto;html=1;exitX=0.75;exitY=0;exitDx=0;exitDy=0;entryX=1;entryY=0.25;entryDx=0;entryDy=0;" edge="1" parent="1" source="Ht0l2AZ8sPLP8vT-4crQ-3" target="Ht0l2AZ8sPLP8vT-4crQ-1">
          <mxGeometry relative="1" as="geometry" />
        </mxCell>
        <mxCell id="Ht0l2AZ8sPLP8vT-4crQ-3" value="Mock FSB Interface&lt;div&gt;(Python)&lt;/div&gt;" style="rounded=0;whiteSpace=wrap;html=1;" parent="1" vertex="1">
          <mxGeometry x="520" y="320" width="160" height="60" as="geometry" />
        </mxCell>
        <mxCell id="Ht0l2AZ8sPLP8vT-4crQ-11" value="TCP Communication" style="text;html=1;align=center;verticalAlign=middle;resizable=0;points=[];autosize=1;strokeColor=none;fillColor=none;fontStyle=1" parent="1" vertex="1">
          <mxGeometry x="215" y="101" width="130" height="30" as="geometry" />
        </mxCell>
        <mxCell id="Ht0l2AZ8sPLP8vT-4crQ-12" value="UART Communication" style="text;html=1;align=center;verticalAlign=middle;resizable=0;points=[];autosize=1;strokeColor=none;fillColor=none;fontStyle=1" parent="1" vertex="1">
          <mxGeometry x="530" y="101" width="140" height="30" as="geometry" />
        </mxCell>
        <mxCell id="Ht0l2AZ8sPLP8vT-4crQ-14" value="&lt;span style=&quot;font-size: 10px;&quot;&gt;New&amp;nbsp;&lt;/span&gt;&lt;div&gt;&lt;span style=&quot;font-size: 10px;&quot;&gt;flow&lt;/span&gt;&lt;div&gt;&lt;span style=&quot;font-size: 10px;&quot;&gt;setpoint&lt;/span&gt;&lt;/div&gt;&lt;/div&gt;" style="edgeLabel;html=1;align=center;verticalAlign=middle;resizable=0;points=[];" parent="1" vertex="1" connectable="0">
          <mxGeometry x="236" y="224" as="geometry">
            <mxPoint x="5" y="6" as="offset" />
          </mxGeometry>
        </mxCell>
        <mxCell id="Ht0l2AZ8sPLP8vT-4crQ-15" value="&lt;span style=&quot;font-size: 10px;&quot;&gt;New&amp;nbsp;&lt;/span&gt;&lt;div&gt;&lt;span style=&quot;font-size: 10px;&quot;&gt;setpoint&lt;/span&gt;&lt;div&gt;&lt;span style=&quot;font-size: 10px;&quot;&gt;actuator&lt;/span&gt;&lt;/div&gt;&lt;/div&gt;" style="edgeLabel;html=1;align=center;verticalAlign=middle;resizable=0;points=[];" parent="1" vertex="1" connectable="0">
          <mxGeometry x="335" y="231" as="geometry">
            <mxPoint x="-16" y="-1" as="offset" />
          </mxGeometry>
        </mxCell>
        <mxCell id="KuING2nJ-84F3JOzizR9-1" value="PyFMI&lt;div&gt;(Python)&lt;/div&gt;" style="rounded=0;whiteSpace=wrap;html=1;" parent="1" vertex="1">
          <mxGeometry x="290" y="460" width="390" height="60" as="geometry" />
        </mxCell>
        <mxCell id="KuING2nJ-84F3JOzizR9-2" value="User / Client system" style="rounded=0;whiteSpace=wrap;html=1;direction=south;" parent="1" vertex="1">
          <mxGeometry x="200" y="460" width="70" height="60" as="geometry" />
        </mxCell>
        <mxCell id="KuING2nJ-84F3JOzizR9-6" style="edgeStyle=orthogonalEdgeStyle;rounded=0;orthogonalLoop=1;jettySize=auto;html=1;exitX=0;exitY=0.431;exitDx=0;exitDy=0;entryX=0.25;entryY=1;entryDx=0;entryDy=0;exitPerimeter=0;" parent="1" source="KuING2nJ-84F3JOzizR9-2" target="Ht0l2AZ8sPLP8vT-4crQ-2" edge="1">
          <mxGeometry relative="1" as="geometry" />
        </mxCell>
        <mxCell id="KuING2nJ-84F3JOzizR9-7" style="edgeStyle=orthogonalEdgeStyle;rounded=0;orthogonalLoop=1;jettySize=auto;html=1;exitX=0.75;exitY=1;exitDx=0;exitDy=0;entryX=0.077;entryY=0;entryDx=0;entryDy=0;entryPerimeter=0;" parent="1" source="Ht0l2AZ8sPLP8vT-4crQ-2" target="KuING2nJ-84F3JOzizR9-1" edge="1">
          <mxGeometry relative="1" as="geometry">
            <mxPoint x="320" y="430" as="targetPoint" />
          </mxGeometry>
        </mxCell>
        <mxCell id="KuING2nJ-84F3JOzizR9-8" style="edgeStyle=orthogonalEdgeStyle;rounded=0;orthogonalLoop=1;jettySize=auto;html=1;exitX=0.25;exitY=1;exitDx=0;exitDy=0;startArrow=classic;startFill=1;endArrow=none;endFill=0;" parent="1" source="Ht0l2AZ8sPLP8vT-4crQ-3" edge="1">
          <mxGeometry relative="1" as="geometry">
            <mxPoint x="560" y="460" as="targetPoint" />
          </mxGeometry>
        </mxCell>
        <mxCell id="KuING2nJ-84F3JOzizR9-9" value="&lt;font style=&quot;font-size: 10px;&quot;&gt;Measured&amp;nbsp;&lt;/font&gt;&lt;div&gt;&lt;font style=&quot;font-size: 10px;&quot;&gt;flow rate&lt;/font&gt;&lt;/div&gt;" style="edgeLabel;html=1;align=center;verticalAlign=middle;resizable=0;points=[];" parent="1" vertex="1" connectable="0">
          <mxGeometry x="560" y="420" as="geometry" />
        </mxCell>
        <mxCell id="KuING2nJ-84F3JOzizR9-10" value="&lt;span style=&quot;font-size: 10px;&quot;&gt;New&amp;nbsp;&lt;/span&gt;&lt;div&gt;&lt;span style=&quot;font-size: 10px;&quot;&gt;flow&lt;/span&gt;&lt;div&gt;&lt;span style=&quot;font-size: 10px;&quot;&gt;setpoint&lt;/span&gt;&lt;/div&gt;&lt;/div&gt;" style="edgeLabel;html=1;align=center;verticalAlign=middle;resizable=0;points=[];" parent="1" vertex="1" connectable="0">
          <mxGeometry x="235.5" y="414" as="geometry">
            <mxPoint x="5" y="6" as="offset" />
          </mxGeometry>
        </mxCell>
        <mxCell id="KuING2nJ-84F3JOzizR9-11" value="&lt;span style=&quot;font-size: 10px;&quot;&gt;New&amp;nbsp;&lt;/span&gt;&lt;div&gt;&lt;span style=&quot;font-size: 10px;&quot;&gt;setpoint&lt;/span&gt;&lt;div&gt;&lt;span style=&quot;font-size: 10px;&quot;&gt;actuator&lt;/span&gt;&lt;/div&gt;&lt;/div&gt;" style="edgeLabel;html=1;align=center;verticalAlign=middle;resizable=0;points=[];" parent="1" vertex="1" connectable="0">
          <mxGeometry x="335" y="421" as="geometry">
            <mxPoint x="-16" y="-1" as="offset" />
          </mxGeometry>
        </mxCell>
        <mxCell id="KuING2nJ-84F3JOzizR9-14" value="Orchistrator&lt;div&gt;(Python)&lt;/div&gt;" style="text;html=1;align=center;verticalAlign=middle;resizable=0;points=[];autosize=1;strokeColor=none;fillColor=none;fontStyle=1" parent="1" vertex="1">
          <mxGeometry x="395" y="260" width="90" height="40" as="geometry" />
        </mxCell>
        <mxCell id="KuING2nJ-84F3JOzizR9-15" value="FMU" style="rounded=0;whiteSpace=wrap;html=1;" parent="1" vertex="1">
          <mxGeometry x="290" y="600" width="390" height="60" as="geometry" />
        </mxCell>
        <mxCell id="KuING2nJ-84F3JOzizR9-16" style="edgeStyle=orthogonalEdgeStyle;rounded=0;orthogonalLoop=1;jettySize=auto;html=1;exitX=0.75;exitY=1;exitDx=0;exitDy=0;entryX=0.077;entryY=0;entryDx=0;entryDy=0;entryPerimeter=0;" parent="1" edge="1">
          <mxGeometry relative="1" as="geometry">
            <mxPoint x="319.17" y="520" as="sourcePoint" />
            <mxPoint x="319.17" y="600" as="targetPoint" />
          </mxGeometry>
        </mxCell>
        <mxCell id="KuING2nJ-84F3JOzizR9-17" style="edgeStyle=orthogonalEdgeStyle;rounded=0;orthogonalLoop=1;jettySize=auto;html=1;exitX=0.693;exitY=1.01;exitDx=0;exitDy=0;startArrow=classic;startFill=1;endArrow=none;endFill=0;entryX=0.693;entryY=0.003;entryDx=0;entryDy=0;entryPerimeter=0;exitPerimeter=0;" parent="1" edge="1" target="KuING2nJ-84F3JOzizR9-15" source="KuING2nJ-84F3JOzizR9-1">
          <mxGeometry relative="1" as="geometry">
            <mxPoint x="599.1700000000001" y="520" as="sourcePoint" />
            <mxPoint x="599.1700000000001" y="600" as="targetPoint" />
          </mxGeometry>
        </mxCell>
        <mxCell id="KuING2nJ-84F3JOzizR9-18" value="&lt;font style=&quot;font-size: 10px;&quot;&gt;Measured&amp;nbsp;&lt;/font&gt;&lt;div&gt;&lt;font style=&quot;font-size: 10px;&quot;&gt;flow rate&lt;/font&gt;&lt;/div&gt;" style="edgeLabel;html=1;align=center;verticalAlign=middle;resizable=0;points=[];" parent="1" vertex="1" connectable="0">
          <mxGeometry x="560.0000000000001" y="565" as="geometry" />
        </mxCell>
        <mxCell id="KuING2nJ-84F3JOzizR9-19" value="&lt;span style=&quot;font-size: 10px;&quot;&gt;New&amp;nbsp;&lt;/span&gt;&lt;div&gt;&lt;span style=&quot;font-size: 10px;&quot;&gt;setpoint&lt;/span&gt;&lt;div&gt;&lt;span style=&quot;font-size: 10px;&quot;&gt;actuator&lt;/span&gt;&lt;/div&gt;&lt;/div&gt;" style="edgeLabel;html=1;align=center;verticalAlign=middle;resizable=0;points=[];" parent="1" vertex="1" connectable="0">
          <mxGeometry x="334.17" y="565" as="geometry">
            <mxPoint x="-16" y="-1" as="offset" />
          </mxGeometry>
        </mxCell>
        <mxCell id="KuING2nJ-84F3JOzizR9-23" style="edgeStyle=orthogonalEdgeStyle;rounded=0;orthogonalLoop=1;jettySize=auto;html=1;exitX=0.5;exitY=1;exitDx=0;exitDy=0;entryX=0.5;entryY=1;entryDx=0;entryDy=0;curved=1;" parent="1" source="KuING2nJ-84F3JOzizR9-20" target="KuING2nJ-84F3JOzizR9-15" edge="1">
          <mxGeometry relative="1" as="geometry" />
        </mxCell>
        <mxCell id="KuING2nJ-84F3JOzizR9-20" value="Modelica&lt;div&gt;Model&lt;/div&gt;" style="rounded=0;whiteSpace=wrap;html=1;" parent="1" vertex="1">
          <mxGeometry x="200" y="600" width="70" height="60" as="geometry" />
        </mxCell>
        <mxCell id="HGNOtrMJjoajRsX06KiG-1" style="edgeStyle=orthogonalEdgeStyle;rounded=0;orthogonalLoop=1;jettySize=auto;html=1;exitX=0.25;exitY=1;exitDx=0;exitDy=0;startArrow=classic;startFill=1;endArrow=none;endFill=0;" edge="1" parent="1">
          <mxGeometry relative="1" as="geometry">
            <mxPoint x="640" y="460" as="targetPoint" />
            <mxPoint x="640" y="380" as="sourcePoint" />
          </mxGeometry>
        </mxCell>
        <mxCell id="HGNOtrMJjoajRsX06KiG-2" value="&lt;span style=&quot;font-size: 10px;&quot;&gt;Actuator&lt;/span&gt;&lt;div&gt;&lt;span style=&quot;font-size: 10px;&quot;&gt;position&lt;/span&gt;&lt;/div&gt;" style="edgeLabel;html=1;align=center;verticalAlign=middle;resizable=0;points=[];" vertex="1" connectable="0" parent="1">
          <mxGeometry x="640" y="420" as="geometry" />
        </mxCell>
        <mxCell id="HGNOtrMJjoajRsX06KiG-3" style="edgeStyle=orthogonalEdgeStyle;rounded=0;orthogonalLoop=1;jettySize=auto;html=1;exitX=0.693;exitY=1.01;exitDx=0;exitDy=0;startArrow=classic;startFill=1;endArrow=none;endFill=0;entryX=0.693;entryY=0.003;entryDx=0;entryDy=0;entryPerimeter=0;exitPerimeter=0;" edge="1" parent="1">
          <mxGeometry relative="1" as="geometry">
            <mxPoint x="640" y="521" as="sourcePoint" />
            <mxPoint x="640" y="600" as="targetPoint" />
          </mxGeometry>
        </mxCell>
        <mxCell id="HGNOtrMJjoajRsX06KiG-4" value="&lt;span style=&quot;font-size: 10px;&quot;&gt;Actuator&lt;/span&gt;&lt;div&gt;&lt;span style=&quot;font-size: 10px;&quot;&gt;position&lt;/span&gt;&lt;/div&gt;" style="edgeLabel;html=1;align=center;verticalAlign=middle;resizable=0;points=[];" vertex="1" connectable="0" parent="1">
          <mxGeometry x="640.0000000000001" y="565" as="geometry" />
        </mxCell>
        <mxCell id="HGNOtrMJjoajRsX06KiG-6" value="&lt;span style=&quot;font-size: 10px;&quot;&gt;Actuator&lt;/span&gt;&lt;div&gt;&lt;span style=&quot;font-size: 10px;&quot;&gt;position&lt;/span&gt;&lt;/div&gt;" style="edgeLabel;html=1;align=center;verticalAlign=middle;resizable=0;points=[];" vertex="1" connectable="0" parent="1">
          <mxGeometry x="640" y="251" as="geometry" />
        </mxCell>
      </root>
    </mxGraphModel>
  </diagram>
</mxfile>
